# xmcd CD database file
#
# Track frame offsets:
#	150
#	16333
#	32508
#	48388
#	61340
#	74795
#	89173
#	103315
#	118403
#	129838
#	144265
#
# Disc length: 2224 seconds
#
# Revision: 16
# Processed by: cddbd v1.5.2PL0 Copyright (c) Steve Scherf et al.
# Submitted via: CDex 1.51
#
DISCID=a208ae0b
DTITLE=Eric Clapton - Eric Clapton
DYEAR=1970
DGENRE=Rock
TTITLE0=Slunky
TTITLE1=Bad Boy
TTITLE2=Lonesome and a Long Way From Home
TTITLE3=After Midnight
TTITLE4=Easy Now
TTITLE5=Blues Power
TTITLE6=Bottle of Red Wine
TTITLE7=Lovin' You Lovin' Me
TTITLE8=I've Told You For the Last Time
TTITLE9=Don't Know Why
TTITLE10=Let It Rain
EXTD=Submited by Emre Gülay YEAR: 1970
EXTT0=
EXTT1=
EXTT2=
EXTT3=
EXTT4=
EXTT5=
EXTT6=
EXTT7=
EXTT8=
EXTT9=
EXTT10=
PLAYORDER=
